<?xml version="1.0" standalone="no"?>
<!DOCTYPE svg PUBLIC "-//W3C//DTD SVG 20010904//EN"
 "http://www.w3.org/TR/2001/REC-SVG-20010904/DTD/svg10.dtd">
<svg version="1.0" xmlns="http://www.w3.org/2000/svg"
 width="62.000000pt" height="62.000000pt" viewBox="0 0 62.000000 62.000000"
 preserveAspectRatio="xMidYMid meet">

<g transform="translate(0.000000,62.000000) scale(0.100000,-0.100000)"
fill="#000000" stroke="none">
<path d="M10 321 c0 -209 0 -210 22 -213 20 -3 22 -8 20 -46 -4 -44 4 -50 36
-32 40 23 186 70 219 70 30 0 34 2 23 15 -16 19 -100 42 -187 51 l-73 7 0 178
0 179 -30 0 -30 0 0 -209z"/>
<path d="M324 378 c-4 -15 -1 -25 12 -35 25 -18 31 -17 38 14 11 42 -37 62
-50 21z"/>
<path d="M370 277 c-9 -27 -8 -34 7 -44 29 -22 50 -15 62 19 6 17 10 32 9 33
-2 1 -17 7 -35 13 -30 10 -32 9 -43 -21z"/>
<path d="M190 270 c0 -5 5 -10 10 -10 6 0 10 5 10 10 0 6 -4 10 -10 10 -5 0
-10 -4 -10 -10z"/>
</g>
</svg>
